# xmcd CD database file
#
# Track frame offsets:
#	225
#	28992
#	53399
#	98497
#	118794
#	135674
#	154753
#	179135
#	195223
#	231677
#
# Disc length: 3136 seconds
#
# Revision: 0
# Processed by: cddbd v1.5.1PL0 Copyright (c) Steve Scherf et al.
# Submitted via: CDex 1.51
#
DISCID=850c3d0a
DTITLE=愚連隊 - ADVENT
DYEAR=1900
DGENRE=サウンドトラック (一般)
TTITLE0=Virgo
TTITLE1=Eternal Heat
TTITLE2=R.H.Zwei
TTITLE3=Glacier
TTITLE4=三月兎の見た現
TTITLE5=ナン
TTITLE6=rOck'ing Techno Gear
TTITLE7=「さぁ、革命劇を始めよう。」
TTITLE8=Warmth
TTITLE9=データトラック
EXTD=
EXTT0=
EXTT1=
EXTT2=
EXTT3=
EXTT4=
EXTT5=
EXTT6=
EXTT7=
EXTT8=
EXTT9=
PLAYORDER=
